<svg width="16" height="16" viewBox="0 0 16 16" fill="none" xmlns="http://www.w3.org/2000/svg">
<path fill-rule="evenodd" clip-rule="evenodd" d="M15 8C15 11.866 11.866 15 8 15C4.13401 15 1 11.866 1 8C1 4.13401 4.13401 1 8 1C11.866 1 15 4.13401 15 8Z" fill="#008817"/>
<path d="M6.94344 2.09277C4.29379 2.56348 2.24546 4.77326 2.02051 7.50005H5.03479C5.21373 5.56416 5.87121 3.70644 6.94344 2.09277Z" fill="white"/>
<path d="M2.02051 8.50005C2.24546 11.2268 4.29379 13.4366 6.94344 13.9073C5.87121 12.2937 5.21373 10.4359 5.03479 8.50005H2.02051Z" fill="white"/>
<path d="M9.0565 13.9073C11.7061 13.4366 13.7545 11.2268 13.9794 8.50005H10.9652C10.7862 10.4359 10.1287 12.2937 9.0565 13.9073Z" fill="white"/>
<path d="M13.9794 7.50005H10.9652C10.7862 5.56416 10.1287 3.70644 9.0565 2.09277C11.7061 2.56348 13.7545 4.77326 13.9794 7.50005Z" fill="white"/>
<path d="M7.99997 2.32268C9.09509 3.84641 9.77154 5.63185 9.96049 7.50005H6.03945C6.2284 5.63185 6.90485 3.84641 7.99997 2.32268Z" fill="white"/>
<path d="M7.99997 13.6774C6.90485 12.1537 6.2284 10.3682 6.03945 8.50005H9.96049C9.77154 10.3682 9.09509 12.1537 7.99997 13.6774Z" fill="white"/>
</svg>
