<svg width="16" height="16" viewBox="0 0 16 16" fill="none" xmlns="http://www.w3.org/2000/svg">
<path d="M3.49983 4.50029C3.49986 3.39579 4.39526 2.5 5.49976 2.5H10.5001C11.6046 2.5 12.5 3.39579 12.5 4.50029L12.5 6.5C12.5 7.32843 13.1714 8 13.9998 8C13.1714 8 12.5 8.67157 12.5 9.5C12.5 11.3872 12.4998 9.54205 12.4998 11.4994C12.4999 12.604 11.6044 13.5 10.4998 13.5H5.50006C4.39543 13.5 3.49998 12.604 3.49999 11.4994C3.50001 9.54205 3.49986 11.3872 3.49983 9.5C3.49983 8.67157 2.82843 8 2 8C2.82843 8 3.49982 7.32843 3.49982 6.5L3.49983 4.50029Z" fill="white"/>
<path d="M5.49976 2C4.11899 2 2.99986 3.11977 2.99983 4.50028L2.99982 6.5C2.99982 7.05236 2.55221 7.5 2 7.5C1.72386 7.5 1.5 7.72386 1.5 8C1.5 8.27614 1.72386 8.5 2 8.5C2.55221 8.5 2.99983 8.94765 2.99983 9.50001L2.99999 11.4994C2.99998 12.88 4.11911 14 5.50006 14H6.49991C6.77605 14 6.99991 13.7761 6.99991 13.5C6.99991 13.2239 6.77605 13 6.49991 13H5.50006C4.67175 13 3.99998 12.328 3.99999 11.4994L3.99983 9.49999C3.99983 8.90267 3.73801 8.36648 3.32284 8C3.73801 7.63352 3.99982 7.09732 3.99982 6.5L3.99983 4.50029C3.99985 3.6718 4.67153 3 5.49976 3H6.49991C6.77605 3 6.99991 2.77614 6.99991 2.5C6.99991 2.22386 6.77605 2 6.49991 2H5.49976Z" fill="#008817"/>
<path d="M10.5002 2C11.881 2 13.0001 3.11977 13.0002 4.50028L13.0002 6.5C13.0002 7.05236 13.4478 7.5 14 7.5C14.2761 7.5 14.5 7.72386 14.5 8C14.5 8.27614 14.2761 8.5 14 8.5C13.4478 8.5 13.0002 8.94765 13.0002 9.50001L13 11.4994C13 12.88 11.8809 14 10.4999 14H9.50009C9.22395 14 9.00009 13.7761 9.00009 13.5C9.00009 13.2239 9.22395 13 9.50009 13H10.4999C11.3283 13 12 12.328 12 11.4994L12.0002 9.49999C12.0002 8.90267 12.262 8.36648 12.6772 8C12.262 7.63352 12.0002 7.09732 12.0002 6.5L12.0002 4.50029C12.0001 3.6718 11.3285 3 10.5002 3H9.50009C9.22395 3 9.00009 2.77614 9.00009 2.5C9.00009 2.22386 9.22395 2 9.50009 2H10.5002Z" fill="#008817"/>
</svg>
