<svg width="16" height="16" viewBox="0 0 16 16" fill="none" xmlns="http://www.w3.org/2000/svg">
<path fill-rule="evenodd" clip-rule="evenodd" d="M14 10.5C14 10.7762 13.7761 11 13.5 11C12.9477 11 12.5 11.4477 12.5 12C12.5 12.5518 12.947 12.9992 13.4986 13H13.5C13.7761 13 14 13.2239 14 13.5C14 13.7761 13.7761 14 13.5 14L4.50023 14C3.11928 14 2.00015 12.88 2.00016 11.4994L2 4.50027C2.00003 3.11977 3.11916 2 4.49992 2H5V1.5C5 1.22386 5.22386 1 5.5 1H8.5C8.63261 1 8.75979 1.05268 8.85355 1.14645C8.94732 1.24021 9 1.36739 9 1.5V2.00002H13C13.5502 2.00002 14 2.44413 14 2.99845L14 10.5Z" fill="#008817"/>
<path fill-rule="evenodd" clip-rule="evenodd" d="M11.7705 11H4.50293C3.95064 11 3.50293 11.4477 3.50293 12C3.50293 12.5512 3.9489 12.9983 4.49969 13L4.50316 13L11.7705 13C11.6003 12.7058 11.5029 12.3643 11.5029 12C11.5029 11.6357 11.6003 11.2942 11.7705 11Z" fill="white"/>
<path fill-rule="evenodd" clip-rule="evenodd" d="M6 5.79297L6.64645 5.14652C6.84171 4.95126 7.15829 4.95126 7.35355 5.14652L8 5.79297L8 2.00008L6 2.00008L6 5.79297Z" fill="white"/>
<path fill-rule="evenodd" clip-rule="evenodd" d="M5.30866 7.46194C5.12182 7.38455 5 7.20223 5 7V3L4.49992 3C3.6717 3 3.00002 3.67181 3 4.5003L3.00014 10.6769C3.36661 10.2618 3.90272 10 4.49999 10H13V3.00002H9V7C9 7.20223 8.87818 7.38455 8.69134 7.46194C8.5045 7.53933 8.28945 7.49655 8.14645 7.35355L7 6.20711L5.85355 7.35355C5.71055 7.49655 5.4955 7.53933 5.30866 7.46194Z" fill="#FFC20E"/>
</svg>
