<svg width="16" height="16" viewBox="0 0 16 16" fill="none" xmlns="http://www.w3.org/2000/svg">
<path d="M5.5 0.5C5.77614 0.5 6 0.723858 6 1V2.00019C6.59673 2.00017 7.19347 2.00014 7.7902 2.00012C8.5268 2.00008 9.2634 2.00004 10 2.00002V1C10 0.723858 10.2239 0.5 10.5 0.5C10.7761 0.5 11 0.723858 11 1V2C11.3334 2 11.6668 2 12.0002 2.00001C13.1047 2.00002 14 2.89542 14 3.99991V12.0001C14 13.1046 13.1046 14.0001 12 14.0001H4C2.89543 14.0001 2 13.1046 2 12.0001V4.00029C2 2.89567 2.89552 2.00022 4.00015 2.00023C4.33344 2.00023 4.66672 2.00023 5 2.00022V1C5 0.723858 5.22386 0.5 5.5 0.5Z" fill="#008817"/>
<path d="M3 7V12.0001C3 12.5524 3.44772 13.0001 4 13.0001H12C12.5523 13.0001 13 12.5524 13 12.0001V7H3Z" fill="white"/>
<path d="M5 3V4C5 4.27614 5.22386 4.5 5.5 4.5C5.77614 4.5 6 4.27614 6 4V3H10V4C10 4.27614 10.2239 4.5 10.5 4.5C10.7761 4.5 11 4.27614 11 4V3H12C12.5523 3 13 3.44772 13 4V6H3V4C3 3.44772 3.44772 3 4 3H5Z" fill="#FFC20E"/>
<path d="M5.5 9C5.77614 9 6 8.77614 6 8.5C6 8.22386 5.77614 8 5.5 8C5.22386 8 5 8.22386 5 8.5C5 8.77614 5.22386 9 5.5 9Z" fill="#FFC20E"/>
<path d="M5.5 11C5.77614 11 6 10.7761 6 10.5C6 10.2239 5.77614 10 5.5 10C5.22386 10 5 10.2239 5 10.5C5 10.7761 5.22386 11 5.5 11Z" fill="#FFC20E"/>
<path d="M11 8.5C11 8.77614 10.7761 9 10.5 9C10.2239 9 10 8.77614 10 8.5C10 8.22386 10.2239 8 10.5 8C10.7761 8 11 8.22386 11 8.5Z" fill="#FFC20E"/>
<path d="M10.5 11C10.7761 11 11 10.7761 11 10.5C11 10.2239 10.7761 10 10.5 10C10.2239 10 10 10.2239 10 10.5C10 10.7761 10.2239 11 10.5 11Z" fill="#FFC20E"/>
<path d="M8.5 8.5C8.5 8.77614 8.27614 9 8 9C7.72386 9 7.5 8.77614 7.5 8.5C7.5 8.22386 7.72386 8 8 8C8.27614 8 8.5 8.22386 8.5 8.5Z" fill="#FFC20E"/>
<path d="M8 11C8.27614 11 8.5 10.7761 8.5 10.5C8.5 10.2239 8.27614 10 8 10C7.72386 10 7.5 10.2239 7.5 10.5C7.5 10.7761 7.72386 11 8 11Z" fill="#FFC20E"/>
</svg>
