<svg width="16" height="16" viewBox="0 0 16 16" fill="none" xmlns="http://www.w3.org/2000/svg">
<path d="M12.6923 8.56213C12.644 7.35932 11.6124 6.37904 10.4011 6.38479C9.73651 6.38863 9.13956 6.67446 8.7242 7.12911C8.61794 7.24613 8.46919 7.31328 8.31077 7.31136L7.00095 7.30177C6.27263 7.30177 5.5501 7.48593 4.93382 7.86768C3.69935 8.63119 3 9.89923 3 11.2766V15.0002H5.70465V11.2766C5.70465 10.9313 5.83988 10.6071 6.08716 10.3635C6.33445 10.1198 6.66866 9.99131 7.00868 9.98939L8.32236 9.99898C8.47692 9.99898 8.62181 10.0661 8.72613 10.1793C9.14342 10.634 9.74231 10.9198 10.4088 10.9198C11.6974 10.9198 12.7406 9.85319 12.6904 8.56213H12.6923ZM10.4107 9.57694C9.89686 9.57694 9.47957 9.16258 9.47957 8.65229C9.47957 8.14201 9.89686 7.72764 10.4107 7.72764C10.9246 7.72764 11.3419 8.14201 11.3419 8.65229C11.3419 9.16258 10.9246 9.57694 10.4107 9.57694Z" fill="#008817"/>
<path d="M4.36947 7.27216C4.77895 7.01099 5.229 6.81907 5.70416 6.69244V6.09292C5.70416 5.76645 5.80074 5.44197 6.00549 5.19266C6.25659 4.88598 6.61585 4.71582 7.00023 4.71582C7.0041 4.71582 8.32334 4.72571 8.32334 4.72571C8.47786 4.72571 8.62273 4.79497 8.72703 4.9117C9.14425 5.38063 9.74303 5.67544 10.4094 5.67544C11.6978 5.67544 12.7408 4.57534 12.6906 3.24375C12.6423 2.00317 11.6108 0.99409 10.3978 1.00003C9.73337 1.00398 9.13652 1.29879 8.72124 1.76772C8.615 1.88841 8.46628 1.95766 8.30789 1.95569L6.9983 1.94579C6.27011 1.94579 5.54771 2.13574 4.93155 2.52948C3.69922 3.31696 3 4.62481 3 6.04544V8.53846C3.37279 8.04777 3.8325 7.61644 4.36947 7.27216ZM10.4094 2.38504C10.9232 2.38504 11.3404 2.81242 11.3404 3.33872C11.3404 3.86503 10.9232 4.2924 10.4094 4.2924C9.89562 4.2924 9.47841 3.86503 9.47841 3.33872C9.47841 2.81242 9.89562 2.38504 10.4094 2.38504Z" fill="#F9A004"/>
</svg>
