<svg width="16" height="16" viewBox="0 0 16 16" fill="none" xmlns="http://www.w3.org/2000/svg">
<path d="M2.00003 6L2 4.50027C2 4.32874 2.01729 4.16122 2.0502 3.99938C2.03352 3.99979 2.01678 4 2 4C0.895431 4 0 3.10457 0 2C0 0.895431 0.895431 0 2 0C3.10457 0 4 0.895431 4 2C4 2.01676 3.99979 2.03347 3.99938 2.05014C4.1611 2.01726 4.3285 2 4.49992 2L13 2.00002C13.5502 2.00002 14 2.44413 14 2.99845L14 10.5C14 10.7762 13.7761 11 13.5 11C12.9477 11 12.5 11.4477 12.5 12C12.5 12.5518 12.947 12.9992 13.4986 13H13.5C13.7761 13 14 13.2239 14 13.5C14 13.7761 13.7761 14 13.5 14L4.50023 14C3.11928 14 2.00015 12.88 2.00016 11.4994L2.00012 10C2.00008 10 2.00017 10 2.00012 10C0.895555 10 0 9.10457 0 8C0 6.89543 0.895464 6 2.00003 6C2.00005 6 2.00002 6 2.00003 6Z" fill="#008817"/>
<path fill-rule="evenodd" clip-rule="evenodd" d="M11.7715 11H4.50391C3.95162 11 3.50391 11.4477 3.50391 12C3.50391 12.5512 3.94987 12.9983 4.50067 13L4.50414 13L11.7715 13C11.6013 12.7058 11.5039 12.3643 11.5039 12C11.5039 11.6357 11.6013 11.2942 11.7715 11Z" fill="white"/>
<path d="M2 11V10C3.10457 10 4 9.10457 4 8C4 7.72982 3.94642 7.47215 3.84932 7.23703L5.3414 6.11797C5.7008 6.65011 6.30954 7 7 7C8.10457 7 9 6.10457 9 5C9 3.89543 8.10457 3 7 3C6.30976 3 5.70119 3.34966 5.34175 3.88151L3.84957 2.76237C3.94652 2.52742 4 2.26995 4 2H5C5 2.12134 4.99275 2.24122 4.97862 2.35916L5.25036 2.56297C5.74246 2.20914 6.34674 2 7 2C7.8885 2 8.68679 2.38625 9.23611 3.00001L13 3.00002V10H4.49999C4.40439 10 4.31036 10.0067 4.21834 10.0197C3.66964 10.622 2.87897 11 2 11Z" fill="#FFC20E"/>
<path d="M3.24913 3.56204C2.90686 3.8361 2.47257 4 2 4V6C2.47234 6 2.90644 6.16374 3.24862 6.43756L5.00362 5.12131C5.00122 5.08118 5 5.04073 5 5C5 4.95901 5.00123 4.91832 5.00366 4.87794L3.24913 3.56204Z" fill="#FFC20E"/>
<path d="M3 2C3 2.55228 2.55228 3 2 3C1.44772 3 1 2.55228 1 2C1 1.44772 1.44772 1 2 1C2.55228 1 3 1.44772 3 2Z" fill="white"/>
<path d="M8 5C8 5.55228 7.55228 6 7 6C6.44772 6 6 5.55228 6 5C6 4.44772 6.44772 4 7 4C7.55228 4 8 4.44772 8 5Z" fill="white"/>
<path d="M2 9C2.55228 9 3 8.55229 3 8C3 7.44772 2.55228 7 2 7C1.44772 7 1 7.44772 1 8C1 8.55229 1.44772 9 2 9Z" fill="white"/>
</svg>
