<svg width="16" height="16" viewBox="0 0 16 16" fill="none" xmlns="http://www.w3.org/2000/svg">
<path fill-rule="evenodd" clip-rule="evenodd" d="M13.4997 0.99953C11.1666 0.999415 8.83361 0.999713 6.50059 0.999815C5.67245 0.99979 5 1.67105 5 2.49985V2.99952L4.45596 2.99953L4.45468 2.99954L3.50059 2.99969C2.67245 2.99966 2 3.67091 2 4.49972V13.4999C2 14.3286 2.67237 14.9999 3.50048 14.9999L10.4995 14.9998C11.3276 14.9998 12 14.3285 12 13.4998V12.9999L13.4995 12.9999C14.3276 12.9999 15 12.3286 15 11.4999V2.4995C15 1.67083 14.3277 0.999571 13.4997 0.99953ZM5 3.99951V11.5C5 12.3287 5.67236 13 6.50048 13L11 12.9999V13.4998C11 13.7756 10.776 13.9998 10.4995 13.9998L3.50048 13.9999C3.22403 13.9999 3 13.7757 3 13.4999V4.49972C3 4.22388 3.22405 3.99968 3.50056 3.99969L4.54109 3.99964L4.54481 3.99963L4.54619 3.99963L4.54976 3.99959L5 3.99951Z" fill="#008817"/>
<path d="M5 4H3.5C3.22386 4 3 4.22386 3 4.5V13.5C3 13.7761 3.22386 14 3.5 14H10.5C10.7761 14 11 13.7761 11 13.5V12.9999L6.50048 13C5.67236 13 5 12.3287 5 11.5V4Z" fill="#FFC20E"/>
<path fill-rule="evenodd" clip-rule="evenodd" d="M6.5 2C6.22386 2 6 2.22386 6 2.5V11.5C6 11.7761 6.22386 12 6.5 12H13.5C13.7761 12 14 11.7761 14 11.5V2.5C14 2.22386 13.7761 2 13.5 2H6.5ZM8 5.5C8 5.22386 8.22386 5 8.5 5H11.5C11.7761 5 12 5.22386 12 5.5C12 5.77614 11.7761 6 11.5 6H8.5C8.22386 6 8 5.77614 8 5.5ZM8 8.5C8 8.22386 8.22386 8 8.5 8H11.5C11.7761 8 12 8.22386 12 8.5C12 8.77614 11.7761 9 11.5 9H8.5C8.22386 9 8 8.77614 8 8.5Z" fill="white"/>
</svg>
