<svg width="16" height="16" viewBox="0 0 16 16" fill="none" xmlns="http://www.w3.org/2000/svg">
<path fill-rule="evenodd" clip-rule="evenodd" d="M12.8714 13.2133V13.2119L12.8841 13.1823L15 2.77451V2.74147C15 2.48196 14.9012 2.2555 14.6881 2.1199C14.5012 2.00081 14.286 1.99255 14.135 2.00357C13.9945 2.01607 13.8558 2.04378 13.7215 2.08617C13.6642 2.104 13.6078 2.12421 13.5522 2.14674L13.543 2.15018L1.74629 6.66503L1.74276 6.66641C1.70662 6.67763 1.67146 6.69167 1.63763 6.7084C1.55378 6.74526 1.4733 6.78902 1.39704 6.83918C1.24535 6.94106 0.956781 7.1806 1.00546 7.56057C1.04568 7.87583 1.26793 8.07545 1.41821 8.17939C1.50671 8.24035 1.60212 8.29116 1.70255 8.33082L1.72512 8.34046L1.73218 8.34253L1.73712 8.34459L3.80155 9.02261C3.79402 9.14927 3.80743 9.27661 3.84177 9.40464L4.87539 13.2311C4.93186 13.4397 5.05387 13.6258 5.2243 13.7633C5.39473 13.9007 5.60501 13.9827 5.82561 13.9975C6.04621 14.0124 6.26604 13.9595 6.45424 13.8463C6.64244 13.733 6.78955 13.5651 6.87491 13.3661L8.48921 11.6824L11.2613 13.7557L11.3008 13.7722C11.5527 13.8796 11.7876 13.9133 12.0028 13.8851C12.218 13.8562 12.3888 13.7681 12.5172 13.6682C12.6657 13.5508 12.7841 13.4011 12.8629 13.2311L12.8685 13.2194L12.8707 13.2153L12.8714 13.2133Z" fill="#F6C445" stroke="#3B852C"/>
<path fill-rule="evenodd" clip-rule="evenodd" d="M5.00649 9.39809C4.99582 9.35812 4.99836 9.31585 5.01373 9.2774C5.02911 9.23895 5.05653 9.20633 5.09201 9.18427L11.6187 5.10223C11.6187 5.10223 12.0029 4.87221 11.9891 5.10223C11.9891 5.10223 12.0575 5.1424 11.8516 5.33095C11.6569 5.51043 7.19982 9.74862 6.74852 10.1776C6.72403 10.202 6.70655 10.2324 6.69787 10.2657L5.97027 13L5.00649 9.39809Z" fill="#3B852C"/>
</svg>